# xmcd
#
# Track frame offsets:
#	150
#	19462
#	39520
#	53885
#	72962
#	95862
#	108437
#	126592
#	138805
#	154782
#	166722
#	179112
#	194990
#	210062
#	226772
#	240192
#	258685
#	276810
#
# Disc length: 3887 seconds
#
# Revision: 1
# Processed by: cddbd v1.5.1PL0 Copyright (c) Steve Scherf et al.
# Submitted via: CDex 1.50Beta5
#
DISCID=060f2d12
DTITLE=青春ドリーマーズ - 青春ドリーマーズ　フォーク編
DYEAR=1900
DGENRE=Folk
TTITLE0=南こうせつ/夢一夜
TTITLE1=ばんばひろふみ/Sachiko
TTITLE2=ガロ/学生街の喫茶店
TTITLE3=山本コウタロー&ウィークエンド/岬めぐり
TTITLE4=グレープ/精霊流し
TTITLE5=泉谷しげる/春夏秋冬
TTITLE6=さとう宗幸/青葉城恋唄
TTITLE7=小椋佳/さらば青春
TTITLE8=BUZZ/ケンとメリー〜愛と風のように〜
TTITLE9=ザ・ブロードサイド・フォー/若者たち〜空にまた陽が昇るとき
TTITLE10=ザ・ブロードサイド・フォー/星に祈りを
TTITLE11=ザ・サベージ/いつまでもいつまでも
TTITLE12=佐々木 勉/この手のひらに愛を
TTITLE13=佐々木 勉/あなたのすべてを
TTITLE14=マイク真木/バラが咲いた
TTITLE15=古時計/ロードショー
TTITLE16=海援隊/母に捧げるバラード
TTITLE17=海援隊/あんたが大将
EXTD=
EXTT0=
EXTT1=
EXTT2=
EXTT3=
EXTT4=
EXTT5=
EXTT6=
EXTT7=
EXTT8=
EXTT9=
EXTT10=
EXTT11=
EXTT12=
EXTT13=
EXTT14=
EXTT15=
EXTT16=
EXTT17=
PLAYORDER=
